<?xml version="1.0" encoding="UTF-8"?>
<svg width="512" height="512" viewBox="0 0 512 512" fill="none" xmlns="http://www.w3.org/2000/svg">
  <circle cx="256" cy="256" r="240" fill="#FFE0B2"/>
  <circle cx="180" cy="180" r="30" fill="#795548"/>
  <circle cx="320" cy="200" r="25" fill="#795548"/>
  <circle cx="220" cy="300" r="35" fill="#795548"/>
  <circle cx="340" cy="320" r="28" fill="#795548"/>
  <circle cx="160" cy="380" r="22" fill="#795548"/>
  <path d="M256 496C388.548 496 496 388.548 496 256C496 123.452 388.548 16 256 16C123.452 16 16 123.452 16 256C16 388.548 123.452 496 256 496Z" stroke="#F4511E" stroke-width="32" stroke-linecap="round" stroke-linejoin="round"/>
  <path d="M256 456C366.457 456 456 366.457 456 256C456 145.543 366.457 56 256 56C145.543 56 56 145.543 56 256C56 366.457 145.543 456 256 456Z" stroke="#FF7043" stroke-width="16" stroke-linecap="round" stroke-linejoin="round" stroke-dasharray="32 32"/>
</svg> 